<mxfile host="app.diagrams.net" modified="2022-02-27T12:19:25.481Z" agent="5.0 (Macintosh; Intel Mac OS X 10_15_7) AppleWebKit/537.36 (KHTML, like Gecko) Chrome/97.0.4692.99 Safari/537.36" etag="AEbeSCXxl8rFkQFpBcZc" version="16.6.1" type="github">
  <diagram id="ctrIMuenUHtmwKar7tfj" name="Page-1">
    <mxGraphModel dx="1298" dy="834" grid="1" gridSize="10" guides="1" tooltips="1" connect="1" arrows="1" fold="1" page="1" pageScale="1" pageWidth="827" pageHeight="1169" math="0" shadow="0">
      <root>
        <mxCell id="0" />
        <mxCell id="1" parent="0" />
        <mxCell id="nF4RDHI_B9qWZAoWCmCx-1" value="Common Language Runtime" style="rounded=0;whiteSpace=wrap;html=1;fontSize=20;fillColor=#f8cecc;strokeColor=#b85450;" vertex="1" parent="1">
          <mxGeometry x="234" y="353" width="376" height="50" as="geometry" />
        </mxCell>
        <mxCell id="nF4RDHI_B9qWZAoWCmCx-2" value="Base Class Library" style="rounded=0;whiteSpace=wrap;html=1;fontSize=20;fillColor=#ffe6cc;strokeColor=#d79b00;" vertex="1" parent="1">
          <mxGeometry x="234" y="303" width="376" height="50" as="geometry" />
        </mxCell>
        <mxCell id="nF4RDHI_B9qWZAoWCmCx-3" value="Data and XML Classes" style="rounded=0;whiteSpace=wrap;html=1;fontSize=20;fillColor=#ffe6cc;strokeColor=#d79b00;" vertex="1" parent="1">
          <mxGeometry x="234" y="250" width="376" height="50" as="geometry" />
        </mxCell>
        <mxCell id="nF4RDHI_B9qWZAoWCmCx-4" value="ASP.NET" style="rounded=0;whiteSpace=wrap;html=1;fontSize=20;fillColor=#ffe6cc;strokeColor=#d79b00;" vertex="1" parent="1">
          <mxGeometry x="234" y="200" width="126" height="50" as="geometry" />
        </mxCell>
        <mxCell id="nF4RDHI_B9qWZAoWCmCx-5" value="Blazor" style="rounded=0;whiteSpace=wrap;html=1;fontSize=20;fillColor=#ffe6cc;strokeColor=#d79b00;" vertex="1" parent="1">
          <mxGeometry x="360" y="200" width="126" height="50" as="geometry" />
        </mxCell>
        <mxCell id="nF4RDHI_B9qWZAoWCmCx-6" value="MAUI" style="rounded=0;whiteSpace=wrap;html=1;fontSize=20;fillColor=#ffe6cc;strokeColor=#d79b00;" vertex="1" parent="1">
          <mxGeometry x="486" y="200" width="124" height="50" as="geometry" />
        </mxCell>
        <mxCell id="nF4RDHI_B9qWZAoWCmCx-7" value="Common Language Runtime" style="rounded=0;whiteSpace=wrap;html=1;fontSize=20;fillColor=#0050ef;strokeColor=#001DBC;fontColor=#ffffff;" vertex="1" parent="1">
          <mxGeometry x="234" y="150" width="376" height="50" as="geometry" />
        </mxCell>
        <mxCell id="nF4RDHI_B9qWZAoWCmCx-8" value="C#" style="rounded=0;whiteSpace=wrap;html=1;fontSize=20;fillColor=#1ba1e2;strokeColor=#006EAF;fontColor=#ffffff;" vertex="1" parent="1">
          <mxGeometry x="234" y="100" width="126" height="50" as="geometry" />
        </mxCell>
        <mxCell id="nF4RDHI_B9qWZAoWCmCx-9" value="F#" style="rounded=0;whiteSpace=wrap;html=1;fontSize=20;fillColor=#1ba1e2;strokeColor=#006EAF;fontColor=#ffffff;" vertex="1" parent="1">
          <mxGeometry x="359" y="100" width="126" height="50" as="geometry" />
        </mxCell>
        <mxCell id="nF4RDHI_B9qWZAoWCmCx-10" value="VB" style="rounded=0;whiteSpace=wrap;html=1;fontSize=20;fillColor=#1ba1e2;strokeColor=#006EAF;fontColor=#ffffff;" vertex="1" parent="1">
          <mxGeometry x="486" y="100" width="124" height="50" as="geometry" />
        </mxCell>
        <mxCell id="nF4RDHI_B9qWZAoWCmCx-12" value=".NET" style="rounded=0;whiteSpace=wrap;html=1;fontSize=20;fillColor=#b1ddf0;strokeColor=#10739e;rotation=90;" vertex="1" parent="1">
          <mxGeometry x="499.38" y="210.63" width="301.25" height="80" as="geometry" />
        </mxCell>
        <mxCell id="nF4RDHI_B9qWZAoWCmCx-16" value="person p" style="rounded=0;whiteSpace=wrap;html=1;fontSize=20;fillColor=#cdeb8b;strokeColor=#36393d;" vertex="1" parent="1">
          <mxGeometry x="570" y="631" width="120" height="70" as="geometry" />
        </mxCell>
        <mxCell id="nF4RDHI_B9qWZAoWCmCx-19" value="p1" style="rounded=0;whiteSpace=wrap;html=1;fontSize=20;fillColor=#ffcc99;strokeColor=#36393d;" vertex="1" parent="1">
          <mxGeometry x="320" y="630" width="120" height="40" as="geometry" />
        </mxCell>
        <mxCell id="nF4RDHI_B9qWZAoWCmCx-20" value="p2" style="rounded=0;whiteSpace=wrap;html=1;fontSize=20;fillColor=#ffcc99;strokeColor=#36393d;" vertex="1" parent="1">
          <mxGeometry x="320" y="710" width="120" height="40" as="geometry" />
        </mxCell>
        <mxCell id="nF4RDHI_B9qWZAoWCmCx-21" value="" style="curved=1;endArrow=classic;html=1;rounded=0;fontSize=20;entryX=0;entryY=0.5;entryDx=0;entryDy=0;" edge="1" parent="1" target="nF4RDHI_B9qWZAoWCmCx-16">
          <mxGeometry width="50" height="50" relative="1" as="geometry">
            <mxPoint x="440" y="650" as="sourcePoint" />
            <mxPoint x="490" y="600" as="targetPoint" />
            <Array as="points">
              <mxPoint x="480" y="650" />
              <mxPoint x="490" y="635" />
              <mxPoint x="520" y="635" />
            </Array>
          </mxGeometry>
        </mxCell>
        <mxCell id="nF4RDHI_B9qWZAoWCmCx-26" value="" style="curved=1;endArrow=classic;html=1;rounded=0;fontSize=20;entryX=0;entryY=0.75;entryDx=0;entryDy=0;" edge="1" parent="1" target="nF4RDHI_B9qWZAoWCmCx-16">
          <mxGeometry width="50" height="50" relative="1" as="geometry">
            <mxPoint x="440" y="729.5" as="sourcePoint" />
            <mxPoint x="570" y="745.5" as="targetPoint" />
            <Array as="points">
              <mxPoint x="480" y="729.5" />
              <mxPoint x="490" y="714.5" />
              <mxPoint x="520" y="714.5" />
            </Array>
          </mxGeometry>
        </mxCell>
      </root>
    </mxGraphModel>
  </diagram>
</mxfile>
